
        <svg xmlns="http://www.w3.org/2000/svg" xmlns:xlink="http://www.w3.org/1999/xlink" version="1.1" width="3176.8867924528304" 
        height="2008.5495283018868" viewBox="0 0 3176.8867924528304 2008.5495283018868">
			
			<g transform="scale(8.84433962264151) translate(10, 10)">
				<defs id="SvgjsDefs4421"><linearGradient id="SvgjsLinearGradient4428"><stop id="SvgjsStop4429" stop-color="#00ff8f" offset="0"></stop><stop id="SvgjsStop4430" stop-color="#00a1ff" offset="1"></stop></linearGradient><linearGradient id="SvgjsLinearGradient4431"><stop id="SvgjsStop4432" stop-color="#00ff8f" offset="0"></stop><stop id="SvgjsStop4433" stop-color="#00a1ff" offset="1"></stop></linearGradient><linearGradient id="SvgjsLinearGradient4434"><stop id="SvgjsStop4435" stop-color="#00ff8f" offset="0"></stop><stop id="SvgjsStop4436" stop-color="#00a1ff" offset="1"></stop></linearGradient></defs><g id="SvgjsG4422" featureKey="symbolFeature-0" transform="matrix(1.8416205226486222,0,0,1.8416205226486222,-368.69242301407434,234.34989834499754)" fill="url(#SvgjsLinearGradient4428)"><g xmlns="http://www.w3.org/2000/svg"><circle cx="206.6" cy="-86.2" r="1.6"></circle><circle cx="212.1" cy="-86.2" r="1.6"></circle><circle cx="217.6" cy="-86.2" r="1.6"></circle><path d="M200.2-92.5v42.9h54.3v-42.9H200.2z M252-52h-49.3V-80H252V-52z M252-82.5h-49.3V-90H252V-82.5z"></path><polygon points="222.5,-63.7 217.1,-66.5 222.5,-69.3 221.7,-71.1 214.4,-67.2 214.4,-65.8 221.7,-62  "></polygon><polygon points="231.2,-73.7 229,-73.7 223.7,-59.9 226,-59.9  "></polygon><polygon points="233.3,-62 240.6,-65.8 240.6,-67.2 233.3,-71.1 232.4,-69.3 237.8,-66.5 232.4,-63.7  "></polygon></g></g><g id="SvgjsG4423" featureKey="textGroupContainer" transform="matrix(0.95,0,0,0.95,338.25,0)" fill="url(#SvgjsLinearGradient4431)"><rect xmlns="http://www.w3.org/2000/svg" y="0" height="1" width="1" opacity="0"></rect><rect xmlns="http://www.w3.org/2000/svg" y="0" x="-235" width="3" height="218"></rect></g><g id="SvgjsG4424" featureKey="vMvB0T-0" transform="matrix(7.830853282327317,0,0,7.830853282327317,120.25372287704039,0.44872234531283794)" fill="url(#SvgjsLinearGradient4434)"><path d="M4.66 15.96 l-0.02 1.44 l0 0.02 q0.92 -0.04 1.48 -0.04 l4.64 0 q0 0.74 -0.06 1.14 q-0.24 1.54 -2.04 1.54 l-5.32 0 q-0.86 0 -1.35 -0.5 t-0.49 -1.36 l0 -11.72 l0.14 -0.14 l8.62 0 q0.12 0.58 0.12 1.26 t-0.28 1.42 l-5.46 0 l0.02 1.44 l0 1.4 q0.52 -0.02 1.36 -0.02 l3.06 0 q0.18 0.56 0.18 1.28 t-0.18 1.32 l-4.42 0 l0 1.52 z M12.56 19.96 l1.06 -13.6 q0.88 -0.16 2.08 -0.16 t2.1 0.16 l1.18 4.9 q0.7 3.32 0.74 3.62 l0.14 0 q0.08 -0.5 0.74 -3.62 l1.2 -4.9 q0.88 -0.16 2.08 -0.16 t2.1 0.16 l1.06 13.6 q-0.62 0.16 -1.53 0.16 t-1.49 -0.1 l-0.32 -5.56 q-0.14 -3.32 -0.16 -4.62 l-0.12 0 l-1.98 8.14 q-0.72 0.12 -1.65 0.12 t-1.65 -0.12 l-1.96 -8.14 l-0.14 0 q0 1.78 -0.16 4.62 l-0.3 5.56 q-0.58 0.1 -1.49 0.1 t-1.53 -0.16 z"></path></g>
			</g>
		</svg>
	